<svg width="412" height="206" viewBox="0 0 412 206" fill="none" xmlns="http://www.w3.org/2000/svg">
<path d="M0 34.3333C0 15.3716 15.3716 0 34.3333 0C53.2951 0 68.6667 15.3716 68.6667 34.3333C68.6667 53.2951 53.2951 68.6667 34.3333 68.6667C15.3716 68.6667 0 53.2951 0 34.3333Z" fill="#413355"/>
<path d="M68.6666 34.3333C68.6666 15.3716 84.0382 0 103 0C121.962 0 137.333 15.3716 137.333 34.3333C137.333 53.2951 121.962 68.6667 103 68.6667C84.0382 68.6667 68.6666 53.2951 68.6666 34.3333Z" fill="#413355"/>
<path d="M137.333 34.3333C137.333 15.3716 152.705 0 171.667 0C190.628 0 206 15.3716 206 34.3333C206 53.2951 190.628 68.6667 171.667 68.6667C152.705 68.6667 137.333 53.2951 137.333 34.3333Z" fill="#413355"/>
<path d="M0 103C0 84.0382 15.3716 68.6667 34.3333 68.6667C53.2951 68.6667 68.6667 84.0382 68.6667 103C68.6667 121.962 53.2951 137.333 34.3333 137.333C15.3716 137.333 0 121.962 0 103Z" fill="#413355"/>
<path d="M68.6666 103C68.6666 84.0382 84.0382 68.6666 103 68.6666C121.962 68.6666 137.333 84.0382 137.333 103C137.333 121.962 121.962 137.333 103 137.333C84.0382 137.333 68.6666 121.962 68.6666 103Z" fill="#413355"/>
<path d="M137.333 103C137.333 84.0382 152.705 68.6666 171.667 68.6666C190.628 68.6666 206 84.0382 206 103C206 121.962 190.628 137.333 171.667 137.333C152.705 137.333 137.333 121.962 137.333 103Z" fill="#413355"/>
<path d="M0 171.667C0 152.705 15.3716 137.333 34.3333 137.333C53.2951 137.333 68.6667 152.705 68.6667 171.667C68.6667 190.628 53.2951 206 34.3333 206C15.3716 206 0 190.628 0 171.667Z" fill="#413355"/>
<path d="M68.6666 171.667C68.6666 152.705 84.0382 137.333 103 137.333C121.962 137.333 137.333 152.705 137.333 171.667C137.333 190.628 121.962 206 103 206C84.0382 206 68.6666 190.628 68.6666 171.667Z" fill="#413355"/>
<path d="M137.333 171.667C137.333 152.705 152.705 137.333 171.667 137.333C190.628 137.333 206 152.705 206 171.667C206 190.628 190.628 206 171.667 206C152.705 206 137.333 190.628 137.333 171.667Z" fill="#FC84DF"/>
<path d="M206 34.3333C206 15.3716 221.372 0 240.333 0C259.295 0 274.667 15.3716 274.667 34.3333C274.667 53.2951 259.295 68.6667 240.333 68.6667C221.372 68.6667 206 53.2951 206 34.3333Z" fill="#413355"/>
<path d="M274.667 34.3333C274.667 15.3716 290.038 0 309 0C327.962 0 343.333 15.3716 343.333 34.3333C343.333 53.2951 327.962 68.6667 309 68.6667C290.038 68.6667 274.667 53.2951 274.667 34.3333Z" fill="#413355"/>
<path d="M343.333 34.3333C343.333 15.3716 358.705 0 377.667 0C396.628 0 412 15.3716 412 34.3333C412 53.2951 396.628 68.6667 377.667 68.6667C358.705 68.6667 343.333 53.2951 343.333 34.3333Z" fill="#413355"/>
<path d="M206 103C206 84.0382 221.372 68.6667 240.333 68.6667C259.295 68.6667 274.667 84.0382 274.667 103C274.667 121.962 259.295 137.333 240.333 137.333C221.372 137.333 206 121.962 206 103Z" fill="#413355"/>
<path d="M274.667 103C274.667 84.0382 290.038 68.6666 309 68.6666C327.962 68.6666 343.333 84.0382 343.333 103C343.333 121.962 327.962 137.333 309 137.333C290.038 137.333 274.667 121.962 274.667 103Z" fill="#06D373"/>
<path d="M343.333 103C343.333 84.0382 358.705 68.6666 377.667 68.6666C396.628 68.6666 412 84.0382 412 103C412 121.962 396.628 137.333 377.667 137.333C358.705 137.333 343.333 121.962 343.333 103Z" fill="#413355"/>
<path d="M206 171.667C206 152.705 221.372 137.333 240.333 137.333C259.295 137.333 274.667 152.705 274.667 171.667C274.667 190.628 259.295 206 240.333 206C221.372 206 206 190.628 206 171.667Z" fill="#413355"/>
<path d="M274.667 171.667C274.667 152.705 290.038 137.333 309 137.333C327.962 137.333 343.333 152.705 343.333 171.667C343.333 190.628 327.962 206 309 206C290.038 206 274.667 190.628 274.667 171.667Z" fill="#413355"/>
<path d="M343.333 171.667C343.333 152.705 358.705 137.333 377.667 137.333C396.628 137.333 412 152.705 412 171.667C412 190.628 396.628 206 377.667 206C358.705 206 343.333 190.628 343.333 171.667Z" fill="#413355"/>
</svg>
