<svg width="120" height="40" viewBox="0 0 120 40" fill="none" xmlns="http://www.w3.org/2000/svg">
<g clip-path="url(#clip0_1_2695)">
<path d="M60.195 39.8825C71.1841 39.8825 80.0925 30.9741 80.0925 19.985C80.0925 8.99594 71.1841 0.0875244 60.195 0.0875244C49.2059 0.0875244 40.2975 8.99594 40.2975 19.985C40.2975 30.9741 49.2059 39.8825 60.195 39.8825Z" fill="#06D373"/>
<path d="M20.3975 39.9126C31.3866 39.9126 40.295 31.0041 40.295 20.0151C40.295 9.02597 31.3866 0.117554 20.3975 0.117554C9.40841 0.117554 0.5 9.02597 0.5 20.0151C0.5 31.0041 9.40841 39.9126 20.3975 39.9126Z" fill="#FF80E3"/>
<path d="M99.9925 39.9126C110.982 39.9126 119.89 31.0041 119.89 20.0151C119.89 9.02597 110.982 0.117554 99.9925 0.117554C89.0034 0.117554 80.095 9.02597 80.095 20.0151C80.095 31.0041 89.0034 39.9126 99.9925 39.9126Z" fill="#DBD7E2"/>
<path d="M13.135 9.6275H21.1625C25.2075 9.6275 28.7725 11.575 28.7725 16.2775C28.7725 20.6825 25.6875 23.4075 20.7725 23.4075H18.0475V30.5975H13.135V9.6275ZM20.7725 19.215C22.69 19.215 23.7675 18.375 23.7675 16.52C23.7675 14.7825 22.9275 13.825 20.7725 13.825H18.0475V19.2175H20.7725V19.215Z" fill="#11002D"/>
<path d="M54.475 9.6275H59.3875V26.255H67.1175V30.6H54.475V9.6275Z" fill="#11002D"/>
<path d="M89.8675 20.2651C89.8675 14.2126 93.4325 9.24005 100.352 9.24005C104.995 9.24005 108.202 11.5776 109.85 15.8301L105.445 17.3576C104.457 14.9601 102.987 13.6126 100.232 13.6126C97.1475 13.6126 94.9 15.3201 94.9 20.2626C94.9 25.2051 96.7275 26.5826 99.9025 26.5826C102.777 26.5826 104.695 25.0551 104.695 22.8376V22.7476H99.6625V19.0626H109.667V30.5951H105.562L105.862 24.8726H105.592C105.052 27.4501 103.105 30.9551 97.9825 30.9551C92.23 30.9551 89.865 26.7601 89.865 20.2601L89.8675 20.2651Z" fill="#11002D"/>
</g>
<defs>
<clipPath id="clip0_1_2695">
<rect width="120" height="40" fill="white"/>
</clipPath>
</defs>
</svg>
